<mxfile host="app.diagrams.net" modified="2024-04-16T18:39:51.472Z" agent="Mozilla/5.0 (Windows NT 10.0; Win64; x64) AppleWebKit/537.36 (KHTML, like Gecko) Chrome/123.0.0.0 Safari/537.36" etag="aHKRsxStTSqogGmHfvdG" version="24.2.3" type="device">
  <diagram name="Página-1" id="sM9vnqfvFfrv4CcLYWpZ">
    <mxGraphModel dx="2087" dy="1327" grid="0" gridSize="10" guides="1" tooltips="1" connect="1" arrows="1" fold="1" page="0" pageScale="1" pageWidth="827" pageHeight="1169" math="0" shadow="0">
      <root>
        <mxCell id="0" />
        <mxCell id="1" parent="0" />
        <mxCell id="7Ec9UbBo5mvRjOxTWShn-18" value="" style="rounded=1;whiteSpace=wrap;html=1;strokeColor=#FF6666;strokeWidth=3;" vertex="1" parent="1">
          <mxGeometry x="-203" y="-64" width="1124" height="245" as="geometry" />
        </mxCell>
        <mxCell id="7Ec9UbBo5mvRjOxTWShn-20" value="" style="group" vertex="1" connectable="0" parent="1">
          <mxGeometry x="-209" y="-90" width="239" height="50" as="geometry" />
        </mxCell>
        <mxCell id="7Ec9UbBo5mvRjOxTWShn-1" value="&lt;p&gt;&lt;font face=&quot;Tahoma&quot; style=&quot;font-size: 24px;&quot;&gt;PLANIFICACIÓN&lt;/font&gt;&lt;/p&gt;" style="rounded=0;whiteSpace=wrap;html=1;strokeWidth=2;fillColor=#FF6666;fontColor=#ffffff;strokeColor=#B20000;" vertex="1" parent="7Ec9UbBo5mvRjOxTWShn-20">
          <mxGeometry x="27.53909465020576" width="211.46090534979425" height="50" as="geometry" />
        </mxCell>
        <mxCell id="7Ec9UbBo5mvRjOxTWShn-19" value="&lt;font color=&quot;#ff6666&quot; style=&quot;font-size: 24px;&quot;&gt;&lt;b&gt;1&lt;/b&gt;&lt;/font&gt;" style="ellipse;whiteSpace=wrap;html=1;aspect=fixed;fillColor=#FFFFFF;fontColor=#ffffff;strokeColor=#FF6666;strokeWidth=3;" vertex="1" parent="7Ec9UbBo5mvRjOxTWShn-20">
          <mxGeometry y="1" width="46.02469135802469" height="46.02469135802469" as="geometry" />
        </mxCell>
        <mxCell id="7Ec9UbBo5mvRjOxTWShn-32" value="" style="group" vertex="1" connectable="0" parent="1">
          <mxGeometry x="-170" y="34" width="756" height="66" as="geometry" />
        </mxCell>
        <mxCell id="7Ec9UbBo5mvRjOxTWShn-8" style="edgeStyle=none;curved=1;rounded=0;orthogonalLoop=1;jettySize=auto;html=1;exitX=1;exitY=0.5;exitDx=0;exitDy=0;entryX=0;entryY=0.5;entryDx=0;entryDy=0;fontSize=12;startSize=8;endSize=8;strokeWidth=2;fillColor=#f8cecc;strokeColor=#b85450;" edge="1" parent="7Ec9UbBo5mvRjOxTWShn-32" source="7Ec9UbBo5mvRjOxTWShn-3" target="7Ec9UbBo5mvRjOxTWShn-7">
          <mxGeometry relative="1" as="geometry" />
        </mxCell>
        <mxCell id="7Ec9UbBo5mvRjOxTWShn-3" value="&lt;font face=&quot;Tahoma&quot; style=&quot;font-size: 20px;&quot;&gt;Tipo de Estudio&lt;/font&gt;" style="rounded=0;whiteSpace=wrap;html=1;strokeWidth=2;fillColor=#f8cecc;strokeColor=#b85450;" vertex="1" parent="7Ec9UbBo5mvRjOxTWShn-32">
          <mxGeometry width="95" height="66" as="geometry" />
        </mxCell>
        <mxCell id="7Ec9UbBo5mvRjOxTWShn-13" style="edgeStyle=none;curved=1;rounded=0;orthogonalLoop=1;jettySize=auto;html=1;exitX=1;exitY=0.5;exitDx=0;exitDy=0;entryX=0;entryY=0.5;entryDx=0;entryDy=0;fontSize=12;startSize=8;endSize=8;strokeWidth=2;fillColor=#f8cecc;strokeColor=#b85450;" edge="1" parent="7Ec9UbBo5mvRjOxTWShn-32" source="7Ec9UbBo5mvRjOxTWShn-4" target="7Ec9UbBo5mvRjOxTWShn-10">
          <mxGeometry relative="1" as="geometry" />
        </mxCell>
        <mxCell id="7Ec9UbBo5mvRjOxTWShn-4" value="&lt;font face=&quot;Tahoma&quot;&gt;&lt;span style=&quot;font-size: 20px;&quot;&gt;Adaptar Metodología&lt;/span&gt;&lt;/font&gt;" style="rounded=0;whiteSpace=wrap;html=1;strokeWidth=2;fillColor=#f8cecc;strokeColor=#b85450;" vertex="1" parent="7Ec9UbBo5mvRjOxTWShn-32">
          <mxGeometry x="297" width="124" height="66" as="geometry" />
        </mxCell>
        <mxCell id="7Ec9UbBo5mvRjOxTWShn-9" style="edgeStyle=none;curved=1;rounded=0;orthogonalLoop=1;jettySize=auto;html=1;exitX=1;exitY=0.5;exitDx=0;exitDy=0;entryX=0;entryY=0.5;entryDx=0;entryDy=0;fontSize=12;startSize=8;endSize=8;strokeWidth=2;fillColor=#f8cecc;strokeColor=#b85450;" edge="1" parent="7Ec9UbBo5mvRjOxTWShn-32" source="7Ec9UbBo5mvRjOxTWShn-7" target="7Ec9UbBo5mvRjOxTWShn-4">
          <mxGeometry relative="1" as="geometry" />
        </mxCell>
        <mxCell id="7Ec9UbBo5mvRjOxTWShn-7" value="&lt;font style=&quot;font-size: 18px;&quot;&gt;SMS&lt;/font&gt;" style="shape=hexagon;perimeter=hexagonPerimeter2;whiteSpace=wrap;html=1;fixedSize=1;strokeWidth=2;" vertex="1" parent="7Ec9UbBo5mvRjOxTWShn-32">
          <mxGeometry x="159" y="11" width="74" height="44" as="geometry" />
        </mxCell>
        <mxCell id="7Ec9UbBo5mvRjOxTWShn-14" style="edgeStyle=none;curved=1;rounded=0;orthogonalLoop=1;jettySize=auto;html=1;exitX=1;exitY=0.5;exitDx=0;exitDy=0;entryX=0;entryY=0.5;entryDx=0;entryDy=0;fontSize=12;startSize=8;endSize=8;strokeWidth=2;fillColor=#f8cecc;strokeColor=#b85450;" edge="1" parent="7Ec9UbBo5mvRjOxTWShn-32" source="7Ec9UbBo5mvRjOxTWShn-10" target="7Ec9UbBo5mvRjOxTWShn-12">
          <mxGeometry relative="1" as="geometry" />
        </mxCell>
        <mxCell id="7Ec9UbBo5mvRjOxTWShn-10" value="&lt;span style=&quot;font-size: 18px;&quot;&gt;Proceso&lt;/span&gt;" style="shape=hexagon;perimeter=hexagonPerimeter2;whiteSpace=wrap;html=1;fixedSize=1;strokeWidth=2;" vertex="1" parent="7Ec9UbBo5mvRjOxTWShn-32">
          <mxGeometry x="479" y="11" width="96" height="44" as="geometry" />
        </mxCell>
        <mxCell id="7Ec9UbBo5mvRjOxTWShn-35" style="edgeStyle=none;curved=1;rounded=0;orthogonalLoop=1;jettySize=auto;html=1;exitX=1;exitY=0.5;exitDx=0;exitDy=0;fontSize=12;startSize=8;endSize=8;strokeWidth=2;fillColor=#f8cecc;strokeColor=#b85450;" edge="1" parent="7Ec9UbBo5mvRjOxTWShn-32" source="7Ec9UbBo5mvRjOxTWShn-12">
          <mxGeometry relative="1" as="geometry">
            <mxPoint x="791.666666666667" y="33.16666666666674" as="targetPoint" />
          </mxGeometry>
        </mxCell>
        <mxCell id="7Ec9UbBo5mvRjOxTWShn-12" value="&lt;font face=&quot;Tahoma&quot;&gt;&lt;span style=&quot;font-size: 20px;&quot;&gt;Definir Parámetros&lt;/span&gt;&lt;/font&gt;" style="rounded=0;whiteSpace=wrap;html=1;strokeWidth=2;fillColor=#f8cecc;strokeColor=#b85450;" vertex="1" parent="7Ec9UbBo5mvRjOxTWShn-32">
          <mxGeometry x="632" width="124" height="66" as="geometry" />
        </mxCell>
        <mxCell id="7Ec9UbBo5mvRjOxTWShn-34" value="" style="group" vertex="1" connectable="0" parent="1">
          <mxGeometry x="616" y="12.5" width="287" height="109" as="geometry" />
        </mxCell>
        <mxCell id="7Ec9UbBo5mvRjOxTWShn-25" value="&lt;span style=&quot;font-size: 18px;&quot;&gt;Cadena Búsqueda&lt;/span&gt;" style="shape=hexagon;perimeter=hexagonPerimeter2;whiteSpace=wrap;html=1;fixedSize=1;strokeWidth=2;" vertex="1" parent="7Ec9UbBo5mvRjOxTWShn-34">
          <mxGeometry x="157" y="1" width="118" height="44" as="geometry" />
        </mxCell>
        <mxCell id="7Ec9UbBo5mvRjOxTWShn-63" style="edgeStyle=none;curved=1;rounded=0;orthogonalLoop=1;jettySize=auto;html=1;exitX=1;exitY=0.5;exitDx=0;exitDy=0;fontSize=12;startSize=8;endSize=8;endArrow=none;endFill=0;strokeWidth=3;fillColor=#dae8fc;strokeColor=#6c8ebf;dashed=1;" edge="1" parent="7Ec9UbBo5mvRjOxTWShn-34" source="7Ec9UbBo5mvRjOxTWShn-26">
          <mxGeometry relative="1" as="geometry">
            <mxPoint x="324" y="87.16666666666674" as="targetPoint" />
          </mxGeometry>
        </mxCell>
        <mxCell id="7Ec9UbBo5mvRjOxTWShn-26" value="&lt;span style=&quot;font-size: 18px;&quot;&gt;Criterios Selección&lt;/span&gt;" style="shape=hexagon;perimeter=hexagonPerimeter2;whiteSpace=wrap;html=1;fixedSize=1;strokeWidth=2;" vertex="1" parent="7Ec9UbBo5mvRjOxTWShn-34">
          <mxGeometry x="153.5" y="65" width="125" height="44" as="geometry" />
        </mxCell>
        <mxCell id="7Ec9UbBo5mvRjOxTWShn-27" value="&lt;span style=&quot;font-size: 18px;&quot;&gt;Extracción Información&lt;/span&gt;" style="shape=hexagon;perimeter=hexagonPerimeter2;whiteSpace=wrap;html=1;fixedSize=1;strokeWidth=2;" vertex="1" parent="7Ec9UbBo5mvRjOxTWShn-34">
          <mxGeometry y="65" width="143.5" height="44" as="geometry" />
        </mxCell>
        <mxCell id="7Ec9UbBo5mvRjOxTWShn-24" value="&lt;span style=&quot;font-size: 18px;&quot;&gt;Preguntas Investigación&lt;/span&gt;" style="shape=hexagon;perimeter=hexagonPerimeter2;whiteSpace=wrap;html=1;fixedSize=1;strokeWidth=2;" vertex="1" parent="7Ec9UbBo5mvRjOxTWShn-34">
          <mxGeometry y="1" width="145" height="44" as="geometry" />
        </mxCell>
        <mxCell id="7Ec9UbBo5mvRjOxTWShn-59" value="" style="group" vertex="1" connectable="0" parent="1">
          <mxGeometry x="-114" y="275" width="957" height="241" as="geometry" />
        </mxCell>
        <mxCell id="7Ec9UbBo5mvRjOxTWShn-58" value="" style="rounded=1;whiteSpace=wrap;html=1;strokeColor=#FF8000;strokeWidth=3;" vertex="1" parent="7Ec9UbBo5mvRjOxTWShn-59">
          <mxGeometry y="20" width="948" height="221" as="geometry" />
        </mxCell>
        <mxCell id="7Ec9UbBo5mvRjOxTWShn-36" value="" style="group" vertex="1" connectable="0" parent="7Ec9UbBo5mvRjOxTWShn-59">
          <mxGeometry x="750" width="207" height="50" as="geometry" />
        </mxCell>
        <mxCell id="7Ec9UbBo5mvRjOxTWShn-21" value="" style="group" vertex="1" connectable="0" parent="7Ec9UbBo5mvRjOxTWShn-36">
          <mxGeometry width="173" height="50" as="geometry" />
        </mxCell>
        <mxCell id="7Ec9UbBo5mvRjOxTWShn-22" value="&lt;p&gt;&lt;font color=&quot;#ffffff&quot; face=&quot;Tahoma&quot; style=&quot;font-size: 24px;&quot;&gt;EJECUCIÓN&lt;/font&gt;&lt;/p&gt;" style="rounded=0;whiteSpace=wrap;html=1;strokeWidth=2;fillColor=#FFB366;fontColor=#000000;strokeColor=#FF8000;" vertex="1" parent="7Ec9UbBo5mvRjOxTWShn-21">
          <mxGeometry x="19.93415637860082" width="153.06584362139918" height="50" as="geometry" />
        </mxCell>
        <mxCell id="7Ec9UbBo5mvRjOxTWShn-23" value="&lt;span style=&quot;font-size: 24px;&quot;&gt;&lt;b style=&quot;&quot;&gt;&lt;font color=&quot;#ff8000&quot;&gt;2&lt;/font&gt;&lt;/b&gt;&lt;/span&gt;" style="ellipse;whiteSpace=wrap;html=1;aspect=fixed;fillColor=#FFFFFF;fontColor=#ffffff;strokeColor=#FF8000;strokeWidth=3;" vertex="1" parent="7Ec9UbBo5mvRjOxTWShn-36">
          <mxGeometry x="159" width="48" height="48" as="geometry" />
        </mxCell>
        <mxCell id="7Ec9UbBo5mvRjOxTWShn-53" style="edgeStyle=none;curved=1;rounded=0;orthogonalLoop=1;jettySize=auto;html=1;exitX=0;exitY=0.5;exitDx=0;exitDy=0;entryX=1;entryY=0.5;entryDx=0;entryDy=0;fontSize=12;startSize=8;endSize=8;fillColor=#ffe6cc;strokeColor=#FF9933;strokeWidth=2;" edge="1" parent="7Ec9UbBo5mvRjOxTWShn-59" source="7Ec9UbBo5mvRjOxTWShn-37" target="7Ec9UbBo5mvRjOxTWShn-52">
          <mxGeometry relative="1" as="geometry" />
        </mxCell>
        <mxCell id="7Ec9UbBo5mvRjOxTWShn-37" value="&lt;font face=&quot;Tahoma&quot;&gt;&lt;span style=&quot;font-size: 20px;&quot;&gt;Ejecutar Proceso&lt;/span&gt;&lt;/font&gt;" style="rounded=0;whiteSpace=wrap;html=1;strokeWidth=2;fillColor=#ffe6cc;strokeColor=#FF9933;" vertex="1" parent="7Ec9UbBo5mvRjOxTWShn-59">
          <mxGeometry x="650" y="109.5" width="124" height="66" as="geometry" />
        </mxCell>
        <mxCell id="7Ec9UbBo5mvRjOxTWShn-46" value="" style="group" vertex="1" connectable="0" parent="7Ec9UbBo5mvRjOxTWShn-59">
          <mxGeometry x="846" y="73" width="79" height="139" as="geometry" />
        </mxCell>
        <mxCell id="7Ec9UbBo5mvRjOxTWShn-44" value="" style="group" vertex="1" connectable="0" parent="7Ec9UbBo5mvRjOxTWShn-46">
          <mxGeometry x="17" width="45" height="109" as="geometry" />
        </mxCell>
        <mxCell id="7Ec9UbBo5mvRjOxTWShn-43" value="" style="rounded=1;whiteSpace=wrap;html=1;strokeWidth=2;fillColor=#ffe6cc;strokeColor=#FF9933;" vertex="1" parent="7Ec9UbBo5mvRjOxTWShn-44">
          <mxGeometry y="32" width="45" height="77" as="geometry" />
        </mxCell>
        <mxCell id="7Ec9UbBo5mvRjOxTWShn-42" value="" style="ellipse;whiteSpace=wrap;html=1;aspect=fixed;strokeWidth=2;fillColor=#ffe6cc;strokeColor=#FF9933;" vertex="1" parent="7Ec9UbBo5mvRjOxTWShn-44">
          <mxGeometry x="3.5" width="37" height="37" as="geometry" />
        </mxCell>
        <mxCell id="7Ec9UbBo5mvRjOxTWShn-45" value="&lt;font style=&quot;font-size: 19px;&quot; face=&quot;Tahoma&quot;&gt;Revisor&lt;/font&gt;" style="text;html=1;align=center;verticalAlign=middle;resizable=0;points=[];autosize=1;strokeColor=none;fillColor=none;fontSize=16;" vertex="1" parent="7Ec9UbBo5mvRjOxTWShn-46">
          <mxGeometry y="104" width="79" height="35" as="geometry" />
        </mxCell>
        <mxCell id="7Ec9UbBo5mvRjOxTWShn-47" style="edgeStyle=none;curved=1;rounded=0;orthogonalLoop=1;jettySize=auto;html=1;exitX=0;exitY=0.5;exitDx=0;exitDy=0;entryX=1;entryY=0.5;entryDx=0;entryDy=0;fontSize=12;startSize=8;endSize=8;strokeWidth=2;strokeColor=#FF9933;" edge="1" parent="7Ec9UbBo5mvRjOxTWShn-59" source="7Ec9UbBo5mvRjOxTWShn-43" target="7Ec9UbBo5mvRjOxTWShn-37">
          <mxGeometry relative="1" as="geometry" />
        </mxCell>
        <mxCell id="7Ec9UbBo5mvRjOxTWShn-55" style="edgeStyle=none;curved=1;rounded=0;orthogonalLoop=1;jettySize=auto;html=1;exitX=0;exitY=0.5;exitDx=0;exitDy=0;entryX=1;entryY=0.5;entryDx=0;entryDy=0;fontSize=12;startSize=8;endSize=8;strokeColor=#FF9933;strokeWidth=2;" edge="1" parent="7Ec9UbBo5mvRjOxTWShn-59" source="7Ec9UbBo5mvRjOxTWShn-52" target="7Ec9UbBo5mvRjOxTWShn-54">
          <mxGeometry relative="1" as="geometry" />
        </mxCell>
        <mxCell id="7Ec9UbBo5mvRjOxTWShn-52" value="&lt;span style=&quot;font-size: 18px;&quot;&gt;Lista Estudios Primarios&lt;/span&gt;" style="shape=hexagon;perimeter=hexagonPerimeter2;whiteSpace=wrap;html=1;fixedSize=1;strokeWidth=2;" vertex="1" parent="7Ec9UbBo5mvRjOxTWShn-59">
          <mxGeometry x="428" y="118.25" width="150" height="48.5" as="geometry" />
        </mxCell>
        <mxCell id="7Ec9UbBo5mvRjOxTWShn-57" style="edgeStyle=none;curved=1;rounded=0;orthogonalLoop=1;jettySize=auto;html=1;exitX=0;exitY=0.5;exitDx=0;exitDy=0;entryX=1;entryY=0.5;entryDx=0;entryDy=0;fontSize=12;startSize=8;endSize=8;strokeWidth=2;strokeColor=#FF9933;" edge="1" parent="7Ec9UbBo5mvRjOxTWShn-59" source="7Ec9UbBo5mvRjOxTWShn-54" target="7Ec9UbBo5mvRjOxTWShn-56">
          <mxGeometry relative="1" as="geometry" />
        </mxCell>
        <mxCell id="7Ec9UbBo5mvRjOxTWShn-54" value="&lt;font face=&quot;Tahoma&quot;&gt;&lt;span style=&quot;font-size: 20px;&quot;&gt;Extracción Información&lt;/span&gt;&lt;/font&gt;" style="rounded=0;whiteSpace=wrap;html=1;strokeWidth=2;fillColor=#ffe6cc;strokeColor=#FF9933;" vertex="1" parent="7Ec9UbBo5mvRjOxTWShn-59">
          <mxGeometry x="232" y="109.5" width="124" height="66" as="geometry" />
        </mxCell>
        <mxCell id="7Ec9UbBo5mvRjOxTWShn-56" value="&lt;span style=&quot;font-size: 18px;&quot;&gt;Información&lt;/span&gt;" style="shape=hexagon;perimeter=hexagonPerimeter2;whiteSpace=wrap;html=1;fixedSize=1;strokeWidth=2;" vertex="1" parent="7Ec9UbBo5mvRjOxTWShn-59">
          <mxGeometry x="38" y="120.5" width="122" height="44" as="geometry" />
        </mxCell>
        <mxCell id="7Ec9UbBo5mvRjOxTWShn-60" style="edgeStyle=orthogonalEdgeStyle;rounded=0;orthogonalLoop=1;jettySize=auto;html=1;exitX=0.5;exitY=1;exitDx=0;exitDy=0;entryX=0.25;entryY=0;entryDx=0;entryDy=0;fontSize=12;startSize=8;endSize=8;strokeWidth=3;fillColor=#dae8fc;strokeColor=#6c8ebf;dashed=1;" edge="1" parent="1" source="7Ec9UbBo5mvRjOxTWShn-10" target="7Ec9UbBo5mvRjOxTWShn-37">
          <mxGeometry relative="1" as="geometry" />
        </mxCell>
        <mxCell id="7Ec9UbBo5mvRjOxTWShn-61" style="edgeStyle=orthogonalEdgeStyle;rounded=0;orthogonalLoop=1;jettySize=auto;html=1;exitX=1;exitY=0.5;exitDx=0;exitDy=0;entryX=0.5;entryY=0;entryDx=0;entryDy=0;fontSize=12;startSize=8;endSize=8;strokeWidth=3;fillColor=#dae8fc;strokeColor=#6c8ebf;dashed=1;" edge="1" parent="1" source="7Ec9UbBo5mvRjOxTWShn-25" target="7Ec9UbBo5mvRjOxTWShn-37">
          <mxGeometry relative="1" as="geometry">
            <Array as="points">
              <mxPoint x="938" y="36" />
              <mxPoint x="938" y="236" />
              <mxPoint x="598" y="236" />
            </Array>
          </mxGeometry>
        </mxCell>
        <mxCell id="7Ec9UbBo5mvRjOxTWShn-64" style="edgeStyle=orthogonalEdgeStyle;rounded=0;orthogonalLoop=1;jettySize=auto;html=1;exitX=0.5;exitY=1;exitDx=0;exitDy=0;entryX=0.5;entryY=0;entryDx=0;entryDy=0;fontSize=12;startSize=8;endSize=8;strokeWidth=3;fillColor=#dae8fc;strokeColor=#6c8ebf;dashed=1;" edge="1" parent="1" source="7Ec9UbBo5mvRjOxTWShn-27" target="7Ec9UbBo5mvRjOxTWShn-54">
          <mxGeometry relative="1" as="geometry">
            <Array as="points">
              <mxPoint x="688" y="211" />
              <mxPoint x="180" y="211" />
            </Array>
          </mxGeometry>
        </mxCell>
        <mxCell id="7Ec9UbBo5mvRjOxTWShn-65" value="" style="group;strokeWidth=0;" vertex="1" connectable="0" parent="1">
          <mxGeometry x="-116" y="589" width="957" height="241" as="geometry" />
        </mxCell>
        <mxCell id="7Ec9UbBo5mvRjOxTWShn-66" value="" style="rounded=1;whiteSpace=wrap;html=1;strokeColor=#F0CB60;strokeWidth=3;" vertex="1" parent="7Ec9UbBo5mvRjOxTWShn-65">
          <mxGeometry y="20" width="948" height="221" as="geometry" />
        </mxCell>
        <mxCell id="7Ec9UbBo5mvRjOxTWShn-67" value="" style="group" vertex="1" connectable="0" parent="7Ec9UbBo5mvRjOxTWShn-65">
          <mxGeometry x="41" width="207" height="50" as="geometry" />
        </mxCell>
        <mxCell id="7Ec9UbBo5mvRjOxTWShn-68" value="" style="group" vertex="1" connectable="0" parent="7Ec9UbBo5mvRjOxTWShn-67">
          <mxGeometry width="173" height="50" as="geometry" />
        </mxCell>
        <mxCell id="7Ec9UbBo5mvRjOxTWShn-69" value="&lt;p&gt;&lt;font color=&quot;#ffffff&quot; face=&quot;Tahoma&quot; style=&quot;font-size: 24px;&quot;&gt;RESOLUCIÓN&lt;/font&gt;&lt;/p&gt;" style="rounded=0;whiteSpace=wrap;html=1;strokeWidth=2;fillColor=#FFD966;strokeColor=#B09500;fontColor=#000000;" vertex="1" parent="7Ec9UbBo5mvRjOxTWShn-68">
          <mxGeometry x="6" width="180" height="50" as="geometry" />
        </mxCell>
        <mxCell id="7Ec9UbBo5mvRjOxTWShn-70" value="&lt;span style=&quot;font-size: 24px;&quot;&gt;&lt;b style=&quot;&quot;&gt;&lt;font color=&quot;#e0c05a&quot;&gt;3&lt;/font&gt;&lt;/b&gt;&lt;/span&gt;" style="ellipse;whiteSpace=wrap;html=1;aspect=fixed;fillColor=#FFFFFF;fontColor=#000000;strokeColor=#B09500;strokeWidth=3;" vertex="1" parent="7Ec9UbBo5mvRjOxTWShn-68">
          <mxGeometry x="-30" width="48" height="48" as="geometry" />
        </mxCell>
        <mxCell id="7Ec9UbBo5mvRjOxTWShn-71" style="edgeStyle=none;curved=1;rounded=0;orthogonalLoop=1;jettySize=auto;html=1;exitX=0;exitY=0.5;exitDx=0;exitDy=0;entryX=1;entryY=0.5;entryDx=0;entryDy=0;fontSize=12;startSize=8;endSize=8;fillColor=#fff2cc;strokeColor=#d6b656;strokeWidth=2;" edge="1" parent="7Ec9UbBo5mvRjOxTWShn-65" source="7Ec9UbBo5mvRjOxTWShn-72">
          <mxGeometry relative="1" as="geometry">
            <mxPoint x="660" y="142.5" as="targetPoint" />
          </mxGeometry>
        </mxCell>
        <mxCell id="7Ec9UbBo5mvRjOxTWShn-72" value="&lt;font face=&quot;Tahoma&quot;&gt;&lt;span style=&quot;font-size: 20px;&quot;&gt;Responder Preguntas&lt;/span&gt;&lt;/font&gt;" style="rounded=0;whiteSpace=wrap;html=1;strokeWidth=2;fillColor=#fff2cc;strokeColor=#d6b656;" vertex="1" parent="7Ec9UbBo5mvRjOxTWShn-65">
          <mxGeometry x="732" y="109.5" width="124" height="66" as="geometry" />
        </mxCell>
        <mxCell id="7Ec9UbBo5mvRjOxTWShn-81" style="edgeStyle=none;curved=1;rounded=0;orthogonalLoop=1;jettySize=auto;html=1;exitX=0;exitY=0.5;exitDx=0;exitDy=0;entryX=1;entryY=0.5;entryDx=0;entryDy=0;fontSize=12;startSize=8;endSize=8;strokeWidth=2;strokeColor=#d6b656;fillColor=#fff2cc;" edge="1" parent="7Ec9UbBo5mvRjOxTWShn-65" source="7Ec9UbBo5mvRjOxTWShn-82">
          <mxGeometry relative="1" as="geometry">
            <mxPoint x="240" y="142.5" as="targetPoint" />
          </mxGeometry>
        </mxCell>
        <mxCell id="7Ec9UbBo5mvRjOxTWShn-115" style="edgeStyle=none;curved=1;rounded=0;orthogonalLoop=1;jettySize=auto;html=1;exitX=0.5;exitY=0;exitDx=0;exitDy=0;fontSize=12;startSize=8;endSize=8;endArrow=none;endFill=0;startArrow=classic;startFill=1;strokeWidth=3;fillColor=#d5e8d4;strokeColor=#82b366;dashed=1;" edge="1" parent="7Ec9UbBo5mvRjOxTWShn-65" source="7Ec9UbBo5mvRjOxTWShn-82">
          <mxGeometry relative="1" as="geometry">
            <mxPoint x="373.70588235294144" y="-17.176470588235134" as="targetPoint" />
          </mxGeometry>
        </mxCell>
        <mxCell id="7Ec9UbBo5mvRjOxTWShn-82" value="&lt;font face=&quot;Tahoma&quot;&gt;&lt;span style=&quot;font-size: 20px;&quot;&gt;Análisis Estadístico&lt;/span&gt;&lt;/font&gt;" style="rounded=0;whiteSpace=wrap;html=1;strokeWidth=2;fillColor=#fff2cc;strokeColor=#d6b656;" vertex="1" parent="7Ec9UbBo5mvRjOxTWShn-65">
          <mxGeometry x="312" y="109.5" width="124" height="66" as="geometry" />
        </mxCell>
        <mxCell id="7Ec9UbBo5mvRjOxTWShn-88" value="&lt;font face=&quot;Tahoma&quot; style=&quot;font-size: 19px;&quot;&gt;Contextualización Cualitativa&lt;/font&gt;" style="ellipse;whiteSpace=wrap;html=1;strokeWidth=2;fillColor=#e1d5e7;strokeColor=#9673a6;" vertex="1" parent="7Ec9UbBo5mvRjOxTWShn-65">
          <mxGeometry x="486" y="102.5" width="172" height="80" as="geometry" />
        </mxCell>
        <mxCell id="7Ec9UbBo5mvRjOxTWShn-112" value="&lt;font face=&quot;Tahoma&quot; style=&quot;font-size: 19px;&quot;&gt;Contextualización Cuantitativa&lt;/font&gt;" style="ellipse;whiteSpace=wrap;html=1;strokeWidth=2;fillColor=#e1d5e7;strokeColor=#9673a6;" vertex="1" parent="7Ec9UbBo5mvRjOxTWShn-65">
          <mxGeometry x="65" y="102.5" width="172" height="80" as="geometry" />
        </mxCell>
        <mxCell id="7Ec9UbBo5mvRjOxTWShn-113" style="edgeStyle=orthogonalEdgeStyle;rounded=0;orthogonalLoop=1;jettySize=auto;html=1;exitX=0.5;exitY=1;exitDx=0;exitDy=0;entryX=0.25;entryY=0;entryDx=0;entryDy=0;fontSize=12;startSize=8;endSize=8;dashed=1;fillColor=#d5e8d4;strokeColor=#82b366;strokeWidth=3;" edge="1" parent="1" source="7Ec9UbBo5mvRjOxTWShn-56" target="7Ec9UbBo5mvRjOxTWShn-72">
          <mxGeometry relative="1" as="geometry" />
        </mxCell>
        <mxCell id="7Ec9UbBo5mvRjOxTWShn-114" style="edgeStyle=orthogonalEdgeStyle;rounded=0;orthogonalLoop=1;jettySize=auto;html=1;exitX=0.5;exitY=0;exitDx=0;exitDy=0;entryX=0.5;entryY=0;entryDx=0;entryDy=0;fontSize=12;startSize=8;endSize=8;strokeWidth=3;fillColor=#d5e8d4;strokeColor=#82b366;dashed=1;" edge="1" parent="1" source="7Ec9UbBo5mvRjOxTWShn-24" target="7Ec9UbBo5mvRjOxTWShn-72">
          <mxGeometry relative="1" as="geometry">
            <Array as="points">
              <mxPoint x="689" y="-7" />
              <mxPoint x="959" y="-7" />
              <mxPoint x="959" y="569" />
              <mxPoint x="678" y="569" />
            </Array>
          </mxGeometry>
        </mxCell>
      </root>
    </mxGraphModel>
  </diagram>
</mxfile>
